<svg height="600" version="1.1" width="800" xmlns="http://www.w3.org/2000/svg" preserveAspectRatio="xMidYMid meet" viewBox="0 0 600 442" xmlns:xlink="http://www.w3.org/1999/xlink"><desc>Created with Snap</desc><defs/><g id="root" contentwidth="226" contentheight="253">
          <rect class="background" height="2000%" width="2000%" y="-1000%" x="-1000%" style="" fill="#ffffff"/>
          <g class="content" id="content" transform="matrix(1,0,0,1,1,19.5)">
            <g class="icon">
            <svg height="147" version="1.1" width="191" xmlns="http://www.w3.org/2000/svg" x="190" y="75" preserveAspectRatio="none" transform="matrix(1,0,0,1,0,0)"><desc>Created with Snap</desc><defs/><svg xmlns="http://www.w3.org/2000/svg" viewBox="188 98 191 147"><defs><filter id="prefix-OpT-filter-1"><feColorMatrix in="SourceGraphic" values="0 0 0 0 0.615686 0 0 0 0 0.682353 0 0 0 0 0.713725 0 0 0 0.329873 0"/></filter><path id="prefix-OpT-path-2" d="M0 0h226.27v27.824H0z"/></defs><path id="prefix-OpT-Fill-1" fill="#8A9EA8" d="M187.63 245.59h190.65L281.854 98.372z"/></svg></svg><svg height="147" version="1.1" width="97" xmlns="http://www.w3.org/2000/svg" x="190" y="75" preserveAspectRatio="none" transform="matrix(1,0,0,1,0,0)"><desc>Created with Snap</desc><defs/><svg xmlns="http://www.w3.org/2000/svg" viewBox="188 98 97 147"><defs><filter id="prefix-8ui-filter-1"><feColorMatrix in="SourceGraphic" values="0 0 0 0 0.615686 0 0 0 0 0.682353 0 0 0 0 0.713725 0 0 0 0.329873 0"/></filter><path id="prefix-8ui-path-2" d="M0 0h226.27v27.824H0z"/></defs><path id="prefix-8ui-Fill-2" fill="#49595F" d="M187.63 245.59h71.205l25.754-68.118h-25.754l23.02-79.1z"/></svg></svg><svg height="99" version="1.1" width="128" xmlns="http://www.w3.org/2000/svg" x="284" y="123" preserveAspectRatio="none" transform="matrix(1,0,0,1,0,0)"><desc>Created with Snap</desc><defs/><svg xmlns="http://www.w3.org/2000/svg" viewBox="282 146 128 99"><defs><filter id="prefix-b2H-filter-1"><feColorMatrix in="SourceGraphic" values="0 0 0 0 0.615686 0 0 0 0 0.682353 0 0 0 0 0.713725 0 0 0 0.329873 0"/></filter><path id="prefix-b2H-path-2" d="M0 0h226.27v27.824H0z"/></defs><path id="prefix-b2H-Fill-4" fill="#8A9EA8" d="M281.855 245.59H410.27l-64.948-99.16z"/></svg></svg><svg height="99" version="1.1" width="65" xmlns="http://www.w3.org/2000/svg" x="284" y="123" preserveAspectRatio="none" transform="matrix(1,0,0,1,0,0)"><desc>Created with Snap</desc><defs/><svg xmlns="http://www.w3.org/2000/svg" viewBox="282 146 65 99"><defs><filter id="prefix-5Yy-filter-1"><feColorMatrix in="SourceGraphic" values="0 0 0 0 0.615686 0 0 0 0 0.682353 0 0 0 0 0.713725 0 0 0 0.329873 0"/></filter><path id="prefix-5Yy-path-2" d="M0 0h226.27v27.824H0z"/></defs><path id="prefix-5Yy-Fill-5" fill="#49595F" d="M281.855 245.59h47.96l17.348-45.881h-17.347l15.506-53.28z"/></svg></svg><svg height="10" version="1.1" width="35" xmlns="http://www.w3.org/2000/svg" x="317" y="109" preserveAspectRatio="none" transform="matrix(1,0,0,1,0,0)"><desc>Created with Snap</desc><defs/><svg xmlns="http://www.w3.org/2000/svg" viewBox="315 132 35 10"><defs><filter id="prefix-za8-filter-1"><feColorMatrix in="SourceGraphic" values="0 0 0 0 0.615686 0 0 0 0 0.682353 0 0 0 0 0.713725 0 0 0 0.329873 0"/></filter><path id="prefix-za8-path-2" d="M0 0h226.27v27.824H0z"/></defs><path d="M349.77 138.342s-7.713-13.095-17.544-2.022c-9.832-11.073-17.546 2.022-17.546 2.022 7.317-4.649 12.502-1.906 15.241.589l-5.415 2.62h14.912l-4.927-2.584c2.727-2.504 7.93-5.296 15.279-.625" id="prefix-za8-Fill-1" fill="#5C2928"/></svg></svg><svg height="28" version="1.1" width="226" xmlns="http://www.w3.org/2000/svg" x="186" y="300" preserveAspectRatio="none" transform="matrix(1,0,0,1,0,0)"><desc>Created with Snap</desc><defs/><svg xmlns:xlink="http://www.w3.org/1999/xlink" xmlns="http://www.w3.org/2000/svg" viewBox="186 320 226 28"><defs><filter id="prefix-Sbm-filter-1"><feColorMatrix in="SourceGraphic" values="0 0 0 0 0.615686 0 0 0 0 0.682353 0 0 0 0 0.713725 0 0 0 0.329873 0"/></filter><path id="prefix-Sbm-path-2" d="M0 0h226.27v27.824H0z"/></defs><g filter="url(#prefix-Sbm-filter-1)" id="prefix-Sbm-编组"><g transform="translate(186.42 320.176)"><mask id="prefix-Sbm-mask-3" fill="#fff"><use xlink:href="#prefix-Sbm-path-2"/></mask><path d="M162.59 24.799h-14.153c-2.32 0-4.2.677-4.2 1.513 0 .835 1.88 1.512 4.2 1.512h14.153c2.32 0 4.2-.677 4.2-1.512 0-.836-1.88-1.513-4.2-1.513Zm-9.71-8.063c1.857 0 3.362.541 3.362 1.21 0 .669-1.505 1.211-3.362 1.211H97.856c-1.857 0-3.362-.542-3.362-1.211s1.505-1.21 3.362-1.21h55.024ZM76.563 6.304c-1.857 0-3.362-.543-3.362-1.211 0-.67 1.505-1.211 3.362-1.211h32.57c1.857 0 3.362.542 3.362 1.21 0 .67-1.505 1.212-3.362 1.212h-32.57ZM220.88 0H5.39C2.413 0 0 .869 0 1.941s2.413 1.94 5.389 1.94h41.497c1.857 0 3.362.543 3.362 1.212 0 .668-1.505 1.21-3.362 1.21H17.24v.008c-2.664.075-4.761.877-4.761 1.856 0 .978 2.097 1.78 4.761 1.855v.007h65.29c1.856 0 3.362.542 3.362 1.21 0 .67-1.506 1.212-3.362 1.212H9.369c-3.285 0-5.948.959-5.948 2.142 0 1.183 2.663 2.143 5.948 2.143H60.09c1.856 0 3.362.541 3.362 1.21 0 .669-1.506 1.211-3.362 1.211H23.81c-2.07 0-3.749.605-3.749 1.35 0 .746 1.679 1.351 3.75 1.351h179.91c2.07 0 3.75-.605 3.75-1.35 0-.746-1.68-1.351-3.75-1.351h-35.147c-1.857 0-3.362-.542-3.362-1.211s1.505-1.21 3.362-1.21h44.319c3.284 0 5.948-.96 5.948-2.143 0-1.183-2.664-2.142-5.948-2.142h-35.27c-1.856 0-3.362-.542-3.362-1.211s1.506-1.21 3.362-1.21h15.205c2.856 0 5.172-.835 5.172-1.863 0-1.03-2.316-1.863-5.172-1.863h-36.967c-1.858 0-3.362-.543-3.362-1.211 0-.67 1.504-1.211 3.362-1.211h65.02c2.976 0 5.388-.87 5.388-1.94C226.27.868 223.858 0 220.881 0ZM116.988 24.799H82.699c-2.32 0-4.2.677-4.2 1.513 0 .835 1.88 1.512 4.2 1.512h34.289c2.32 0 4.2-.677 4.2-1.512 0-.836-1.88-1.513-4.2-1.513Z" id="prefix-Sbm-Fill-1" fill="#FEFEFE" mask="url(#prefix-Sbm-mask-3)"/></g></g></svg></svg><svg height="59" version="1.1" width="136" xmlns="http://www.w3.org/2000/svg" x="226" y="169" preserveAspectRatio="none" transform="matrix(1,0,0,1,0,0)"><desc>Created with Snap</desc><defs/><svg xmlns="http://www.w3.org/2000/svg" viewBox="224 192 136 59"><defs><filter id="prefix-sTa-filter-1"><feColorMatrix in="SourceGraphic" values="0 0 0 0 0.615686 0 0 0 0 0.682353 0 0 0 0 0.713725 0 0 0 0.329873 0"/></filter><path id="prefix-sTa-path-2" d="M0 0h226.27v27.824H0z"/></defs><path d="M305.93 192.264c-20.565-.595-39.727 10.095-50.058 27.685l-.31.535-1.44 2.515L237 223c-7.077 0-12.833 5.655-12.996 12.693L224 236v2c0 7.077 5.655 12.833 12.693 12.996L237 251h110c7.077 0 12.833-5.655 12.996-12.693L360 238v-17.941c0-14.461-11.386-26.327-25.782-26.973l-.437-.016-27.85-.806Z" id="prefix-sTa-路径" fill="#F8503C" fill-rule="nonzero"/></svg></svg><svg height="15" version="1.1" width="86" xmlns="http://www.w3.org/2000/svg" x="251" y="184" preserveAspectRatio="none" transform="matrix(1,0,0,1,0,0)"><desc>Created with Snap</desc><defs/><svg xmlns="http://www.w3.org/2000/svg" viewBox="249 207 86 15"><defs><filter id="prefix-WTR-filter-1"><feColorMatrix in="SourceGraphic" values="0 0 0 0 0.615686 0 0 0 0 0.682353 0 0 0 0 0.713725 0 0 0 0.329873 0"/></filter><path id="prefix-WTR-path-2" d="M0 0h226.27v27.824H0z"/></defs><path d="M335.465 221.766c-2.96-.953-5.741-2.345-8.169-4.2l-6.228-10.317h-68.08c-2.188 0-3.959 1.623-3.959 3.629v8.468c0 1.336 1.182 2.42 2.639 2.42h83.797Z" id="prefix-WTR-Fill-5备份" fill="#DAE3E6" transform="matrix(-1 0 0 1 584.494 0)"/></svg></svg><svg height="5" version="1.1" width="14" xmlns="http://www.w3.org/2000/svg" x="224" y="210" preserveAspectRatio="none" transform="matrix(1,0,0,1,0,0)"><desc>Created with Snap</desc><defs/><svg xmlns="http://www.w3.org/2000/svg" viewBox="222 233 14 5"><defs><filter id="prefix-44s-filter-1"><feColorMatrix in="SourceGraphic" values="0 0 0 0 0.615686 0 0 0 0 0.682353 0 0 0 0 0.713725 0 0 0 0.329873 0"/></filter><path id="prefix-44s-path-2" d="M0 0h226.27v27.824H0z"/></defs><path d="M233.45 232.863a2.42 2.42 0 0 1 .16 4.835l-.16.005h-9.196a2.42 2.42 0 0 1-.16-4.835l.16-.005h9.196Z" id="prefix-44s-Stroke-12备份" fill="#FC0" fill-rule="nonzero" transform="matrix(-1 0 0 1 457.704 0)"/></svg></svg><svg height="69" version="1.1" width="146" xmlns="http://www.w3.org/2000/svg" x="221" y="164" preserveAspectRatio="none" transform="matrix(1,0,0,1,0,0)"><desc>Created with Snap</desc><defs/><svg xmlns="http://www.w3.org/2000/svg" viewBox="219 187 146 69"><defs><filter id="prefix-MG--filter-1"><feColorMatrix in="SourceGraphic" values="0 0 0 0 0.615686 0 0 0 0 0.682353 0 0 0 0 0.713725 0 0 0 0.329873 0"/></filter><path id="prefix-MG--path-2" d="M0 0h226.27v27.824H0z"/></defs><path d="m306.075 187.266 27.85.806c17.306.501 31.075 14.674 31.075 31.987V238c0 9.941-8.059 18-18 18H237c-9.941 0-18-8.059-18-18v-2c0-9.941 8.059-18 18-18h14.223c11.076-19.343 32.046-31.394 54.852-30.734Zm-50.203 32.683-.31.535-1.44 2.515L237 223c-7.077 0-12.833 5.655-12.996 12.693L224 236v2c0 7.077 5.655 12.833 12.693 12.996L237 251h110c7.077 0 12.833-5.655 12.996-12.693L360 238v-17.941c0-14.461-11.386-26.327-25.782-26.973l-.437-.016-27.85-.806c-20.566-.595-39.728 10.095-50.059 27.685Z" id="prefix-MG--形状结合" fill="#232E38" fill-rule="nonzero"/></svg></svg><svg height="19" version="1.1" width="93" xmlns="http://www.w3.org/2000/svg" x="249" y="181" preserveAspectRatio="none" transform="matrix(1,0,0,1,0,0)"><desc>Created with Snap</desc><defs/><svg xmlns="http://www.w3.org/2000/svg" viewBox="247 204 93 19"><defs><filter id="prefix-vU0-filter-1"><feColorMatrix in="SourceGraphic" values="0 0 0 0 0.615686 0 0 0 0 0.682353 0 0 0 0 0.713725 0 0 0 0.329873 0"/></filter><path id="prefix-vU0-path-2" d="M0 0h226.27v27.824H0z"/></defs><path d="M322.885 203.829h-69.98a6.048 6.048 0 0 0-6.05 6.049v8.468a4.84 4.84 0 0 0 4.84 4.84h87.52c1.816 0 .28-1.568-4.61-4.704a36.472 36.472 0 0 0-3.863-3.775l-6.308-10.317a2.42 2.42 0 0 0-1.55-.561Zm1.549 4.839 5.645 9.677h-78.383v-8.467l.006-.124a1.208 1.208 0 0 1 1.204-1.085l71.528-.001Z" id="prefix-vU0-Stroke-7备份" fill="#232E38" fill-rule="nonzero" transform="matrix(-1 0 0 1 586.809 0)"/></svg></svg><svg height="29" version="1.1" width="29" xmlns="http://www.w3.org/2000/svg" x="251" y="213" preserveAspectRatio="none" transform="matrix(1,0,0,1,0,0)"><desc>Created with Snap</desc><defs/><svg xmlns="http://www.w3.org/2000/svg" viewBox="249 236 29 29"><defs><filter id="prefix-pN0-filter-1"><feColorMatrix in="SourceGraphic" values="0 0 0 0 0.615686 0 0 0 0 0.682353 0 0 0 0 0.713725 0 0 0 0.329873 0"/></filter><path id="prefix-pN0-path-2" d="M0 0h226.27v27.824H0z"/></defs><path d="M278.33 250.639c0 8.016-6.503 14.517-14.52 14.517s-14.52-6.501-14.52-14.517c0-8.016 6.503-14.517 14.52-14.517s14.52 6.501 14.52 14.517" id="prefix-pN0-Fill-23备份" fill="#A6ACB2" transform="matrix(-1 0 0 1 527.62 0)"/></svg></svg><svg height="5" version="1.1" width="10" xmlns="http://www.w3.org/2000/svg" x="294" y="205" preserveAspectRatio="none" transform="matrix(1,0,0,1,0,0)"><desc>Created with Snap</desc><defs/><svg xmlns="http://www.w3.org/2000/svg" viewBox="292 228 10 5"><defs><filter id="prefix-EZN-filter-1"><feColorMatrix in="SourceGraphic" values="0 0 0 0 0.615686 0 0 0 0 0.682353 0 0 0 0 0.713725 0 0 0 0.329873 0"/></filter><path id="prefix-EZN-path-2" d="M0 0h226.27v27.824H0z"/></defs><path d="M299.37 228.024a2.42 2.42 0 0 1 .16 4.835l-.16.005h-4.84a2.42 2.42 0 0 1-.16-4.835l.16-.005h4.84Z" id="prefix-EZN-Stroke-16备份" fill="#3F291E" fill-rule="nonzero" transform="matrix(-1 0 0 1 593.9 0)"/></svg></svg><svg height="29" version="1.1" width="29" xmlns="http://www.w3.org/2000/svg" x="316" y="213" preserveAspectRatio="none" transform="matrix(1,0,0,1,0,0)"><desc>Created with Snap</desc><defs/><svg xmlns="http://www.w3.org/2000/svg" viewBox="314 236 29 29"><defs><filter id="prefix-Qsb-filter-1"><feColorMatrix in="SourceGraphic" values="0 0 0 0 0.615686 0 0 0 0 0.682353 0 0 0 0 0.713725 0 0 0 0.329873 0"/></filter><path id="prefix-Qsb-path-2" d="M0 0h226.27v27.824H0z"/></defs><path d="M343.33 250.639c0 8.016-6.503 14.517-14.52 14.517s-14.52-6.501-14.52-14.517c0-8.016 6.503-14.517 14.52-14.517s14.52 6.501 14.52 14.517" id="prefix-Qsb-Fill-23备份-2" fill="#A6ACB2" transform="matrix(-1 0 0 1 657.62 0)"/></svg></svg><svg height="19" version="1.1" width="5" xmlns="http://www.w3.org/2000/svg" x="316" y="181" preserveAspectRatio="none" transform="matrix(1,0,0,1,0,0)"><desc>Created with Snap</desc><defs/><svg xmlns="http://www.w3.org/2000/svg" viewBox="314 204 5 19"><defs><filter id="prefix-tkH-filter-1"><feColorMatrix in="SourceGraphic" values="0 0 0 0 0.615686 0 0 0 0 0.682353 0 0 0 0 0.713725 0 0 0 0.329873 0"/></filter><path id="prefix-tkH-path-2" d="M0 0h226.27v27.824H0z"/></defs><path d="M316.37 203.829a2.42 2.42 0 0 1 2.415 2.26l.005.16v14.517a2.42 2.42 0 0 1-4.835.159l-.005-.16V206.25a2.42 2.42 0 0 1 2.42-2.42Z" id="prefix-tkH-Stroke-11备份" fill="#232E38" fill-rule="nonzero" transform="matrix(-1 0 0 1 632.74 0)"/></svg></svg><svg height="34" version="1.1" width="34" xmlns="http://www.w3.org/2000/svg" x="249" y="211" preserveAspectRatio="none" transform="matrix(1,0,0,1,0,0)"><desc>Created with Snap</desc><defs/><svg xmlns="http://www.w3.org/2000/svg" viewBox="247 234 34 34"><defs><filter id="prefix-US6-filter-1"><feColorMatrix in="SourceGraphic" values="0 0 0 0 0.615686 0 0 0 0 0.682353 0 0 0 0 0.713725 0 0 0 0.329873 0"/></filter><path id="prefix-US6-path-2" d="M0 0h226.27v27.824H0z"/></defs><path d="M263.81 233.702c-9.354 0-16.94 7.585-16.94 16.937 0 9.353 7.586 16.937 16.94 16.937 9.354 0 16.94-7.584 16.94-16.937 0-9.352-7.586-16.937-16.94-16.937Zm0 4.84c6.681 0 12.1 5.418 12.1 12.097 0 6.68-5.419 12.097-12.1 12.097s-12.1-5.418-12.1-12.097c0-6.68 5.419-12.097 12.1-12.097Z" id="prefix-US6-Stroke-25备份" fill="#232E38" fill-rule="nonzero" transform="matrix(-1 0 0 1 527.62 0)"/></svg></svg><svg height="34" version="1.1" width="34" xmlns="http://www.w3.org/2000/svg" x="314" y="211" preserveAspectRatio="none" transform="matrix(1,0,0,1,0,0)"><desc>Created with Snap</desc><defs/><svg xmlns="http://www.w3.org/2000/svg" viewBox="312 234 34 34"><defs><filter id="prefix-9Yn-filter-1"><feColorMatrix in="SourceGraphic" values="0 0 0 0 0.615686 0 0 0 0 0.682353 0 0 0 0 0.713725 0 0 0 0.329873 0"/></filter><path id="prefix-9Yn-path-2" d="M0 0h226.27v27.824H0z"/></defs><path d="M328.81 233.702c-9.354 0-16.94 7.585-16.94 16.937 0 9.353 7.586 16.937 16.94 16.937 9.354 0 16.94-7.584 16.94-16.937 0-9.352-7.586-16.937-16.94-16.937Zm0 4.84c6.681 0 12.1 5.418 12.1 12.097 0 6.68-5.419 12.097-12.1 12.097s-12.1-5.418-12.1-12.097c0-6.68 5.419-12.097 12.1-12.097Z" id="prefix-9Yn-Stroke-25备份-2" fill="#232E38" fill-rule="nonzero" transform="matrix(-1 0 0 1 657.62 0)"/></svg></svg><svg height="13" version="1.1" width="13" xmlns="http://www.w3.org/2000/svg" x="259" y="221" preserveAspectRatio="none" transform="matrix(1,0,0,1,0,0)"><desc>Created with Snap</desc><defs/><svg xmlns="http://www.w3.org/2000/svg" viewBox="257 244 13 13"><defs><filter id="prefix-_U6-filter-1"><feColorMatrix in="SourceGraphic" values="0 0 0 0 0.615686 0 0 0 0 0.682353 0 0 0 0 0.713725 0 0 0 0.329873 0"/></filter><path id="prefix-_U6-path-2" d="M0 0h226.27v27.824H0z"/></defs><path d="M263.81 243.985a6.656 6.656 0 0 0-6.655 6.654 6.656 6.656 0 0 0 13.31 0 6.656 6.656 0 0 0-6.655-6.654Zm0 4.84c1.001 0 1.815.813 1.815 1.814a1.816 1.816 0 0 1-3.63 0c0-1 .814-1.814 1.815-1.814Z" id="prefix-_U6-Stroke-33备份" fill="#232E38" fill-rule="nonzero" transform="matrix(-1 0 0 1 527.62 0)"/></svg></svg><svg height="13" version="1.1" width="13" xmlns="http://www.w3.org/2000/svg" x="324" y="221" preserveAspectRatio="none" transform="matrix(1,0,0,1,0,0)"><desc>Created with Snap</desc><defs/><svg xmlns="http://www.w3.org/2000/svg" viewBox="322 244 13 13"><defs><filter id="prefix-mSs-filter-1"><feColorMatrix in="SourceGraphic" values="0 0 0 0 0.615686 0 0 0 0 0.682353 0 0 0 0 0.713725 0 0 0 0.329873 0"/></filter><path id="prefix-mSs-path-2" d="M0 0h226.27v27.824H0z"/></defs><path d="M328.81 243.985a6.656 6.656 0 0 0-6.655 6.654 6.656 6.656 0 0 0 13.31 0 6.656 6.656 0 0 0-6.655-6.654Zm0 4.84c1.001 0 1.815.813 1.815 1.814a1.816 1.816 0 0 1-3.63 0c0-1 .814-1.814 1.815-1.814Z" id="prefix-mSs-Stroke-33备份-2" fill="#232E38" fill-rule="nonzero" transform="matrix(-1 0 0 1 657.62 0)"/></svg></svg></g>
            <g id="icon_name_and_slogan_gap">
            </g>
            <g class="name_and_slogan" id="name_and_slogan_id">
              <g class="name"><g id="nameDefaultGroup"><path d="M235.3 255.7 L249.6 292.5 L239.7 292.5 L237.3 285.9 L222.5 285.9 L219.9 292.5 L210 292.5 L224.8 255.7 L235.3 255.7 M234.2 277.6 L230.1 266.2 L230 266.2 L225.6 277.6 L234.2 277.6 M285.2 274.1 Q285.2 279.2 283.3 283.3 Q281.5 287.5 277.4 290 Q273.3 292.5 266.8 292.5 L266.8 292.5 L253 292.5 L253 255.7 L266.8 255.7 Q273.2 255.7 277.4 258.2 Q281.5 260.7 283.3 264.8 Q285.2 269 285.2 274.1 L285.2 274.1 M275.7 274.1 Q275.7 269.3 273.4 266.7 Q271 264 265.8 264 L265.8 264 L262.4 264 L262.4 284.2 L265.8 284.2 Q271 284.2 273.3 281.5 Q275.7 278.8 275.7 274.1 L275.7 274.1 M290.4 258.2 L293 255.3 L301.9 257.6 L301.9 284.2 L316.3 284.2 L318.7 282.7 L321.6 287.5 L319.2 292.4 Q317.2 292.2 307.8 292.2 L307.8 292.2 Q302.8 292.2 298.2 292.3 Q293.5 292.3 292.5 292.4 L292.5 292.4 L292.5 259.2 L290.4 258.2 M342.1 274.4 L342.1 274.3 Q342 273.3 341.1 272.6 Q340.1 271.9 338.2 271.9 L338.2 271.9 Q335 271.9 333.5 273.7 L333.5 273.7 L325 272.5 Q326.7 268.8 330.2 266.7 Q333.6 264.5 338.6 264.5 L338.6 264.5 Q344.8 264.5 348 267.2 Q351.3 269.9 351.3 274.8 L351.3 274.8 L351.3 285.3 Q351.3 286.1 351.7 286.5 Q352 286.9 353 286.9 L353 286.9 Q353.2 286.9 353.8 286.8 L353.8 286.8 L353.8 292.5 Q351.4 293.2 348.9 293.2 L348.9 293.2 Q347.4 293.2 345.6 292.8 Q343.9 292.4 343.2 291.7 L343.2 291.7 Q342.7 291.1 342.6 290.6 L342.6 290.6 Q341.1 291.8 338.8 292.5 Q336.5 293.2 334.1 293.2 L334.1 293.2 Q331.8 293.2 329.6 292.4 Q327.4 291.5 326 289.8 Q324.6 288.1 324.6 285.7 L324.6 285.7 Q324.6 280.8 328.7 278 Q332.8 275.1 342.1 274.4 L342.1 274.4 M336.3 285.9 Q337.6 285.9 339.2 285.6 Q340.8 285.3 342.1 284.7 L342.1 284.7 L342.1 281.7 Q338.9 281.7 336.3 282.5 Q333.8 283.2 333.8 284.5 L333.8 284.5 Q333.8 285.4 334.4 285.6 Q334.9 285.9 336.3 285.9 L336.3 285.9 M366.1 292.7 L366.1 291.5 L365.2 291.5 L365.2 292.7 L362.6 292.7 L362.6 291.5 L361.8 291.5 L361.8 292.7 L359.4 292.7 L359.4 258 L357.3 257.2 L359.9 254.5 L368.6 256.6 L368.6 266.4 Q371.4 264.5 374.6 264.5 L374.6 264.5 Q376.8 264.5 379.3 265.1 L379.3 265.1 Q381.9 266 383.8 267.8 L383.8 267.8 Q385.7 269.9 386.5 272.4 L386.5 272.4 Q387.5 275.4 387.5 278.9 L387.5 278.9 Q387.5 282.4 386.5 285.3 L386.5 285.3 Q385.7 287.9 383.8 290 L383.8 290 Q381.8 291.8 379.2 292.6 L379.2 292.6 Q376.5 293.2 374.3 293.2 L374.3 293.2 Q371.3 293.2 368.6 291.6 L368.6 291.6 L368.6 292.7 L366.1 292.7 M368.6 273.9 L368.6 284.1 Q370.6 285.4 373.2 285.4 L373.2 285.4 Q374.3 285.4 375.2 285 Q376.2 284.5 376.8 283.7 L376.8 283.7 Q377.6 282.7 377.9 281.6 L377.9 281.6 Q378.3 280.2 378.3 278.9 L378.3 278.9 Q378.3 277.5 377.9 276.2 L377.9 276.2 Q377.6 275 376.8 274 L376.8 274 Q376.2 273.2 375.2 272.8 Q374.3 272.3 373.2 272.3 L373.2 272.3 Q370.6 272.3 368.6 273.9 L368.6 273.9 Z" style="" fill="#49595f" transform="matrix(1,0,0,1,0,0)"/></g></g>
              <g class="slogan"><g id="sloganDefaultGroup"/></g>
            </g>
            <g class="border">
            </g>
          </g>
          
          <defs id="defs">
            <mask xmlns="http://www.w3.org/2000/svg" id="mask">
                <rect id="showAll" fill="white" x="186" y="75" width="226" height="253"/>
                <rect id="hideNameBg" fill="black" x="0" y="0" width="0" height="0" stroke-width="2" stroke="black"/>
                <rect id="hideSloganBg" fill="black" x="0" y="0" width="0" height="0" stroke-width="2" stroke="black"/>
            </mask>
          </defs>
          
        </g>
        </svg>